<svg aria-hidden="true" style="position: absolute; width: 0; height: 0; overflow: hidden;" version="1.1" xmlns="http://www.w3.org/2000/svg" xmlns:xlink="http://www.w3.org/1999/xlink">
<defs>
<symbol id="icon-logo-illia" viewBox="0 0 23 32">
<path fill="#fff" style="fill: var(--color1, #fff)" d="M3.935 10.171c0 0.556 0.087 1.014 0.217 1.473l0.147 0.42c0.071 0.178 0.144 0.36 0.24 0.524 0.024 0.040 0.040 0.083 0.063 0.123 0.023 0.038 0.043 0.075 0.069 0.116 0.156 0.26 0.478 0.747 0.71 0.978 0.041 0.040 0.056 0.067 0.093 0.106 0.477 0.495 1.082 1.007 1.684 1.336 0.51 0.278 1.002 0.523 1.57 0.712 0.183 0.061 1.003 0.316 1.2 0.316 0.198 0 0.333-0.154 0.333-0.358v-4.23c0-0.186-0.13-0.358-0.321-0.358h-2.49v-0.825h4.044v6.783c-0.264 0-0.55-0.013-0.805-0.046-0.68-0.088-1.202-0.151-1.878-0.342-0.136-0.039-0.249-0.071-0.379-0.113-0.069-0.023-0.121-0.036-0.189-0.059-0.303-0.103-0.601-0.221-0.888-0.344-0.342-0.145-0.658-0.319-0.982-0.499-0.413-0.229-0.797-0.514-1.164-0.809-0.050-0.040-0.084-0.073-0.134-0.112l-0.385-0.356c-0.083-0.083-0.168-0.161-0.247-0.247l-0.342-0.399c-0.039-0.051-0.071-0.086-0.109-0.137-0.178-0.238-0.352-0.479-0.493-0.739l-0.087-0.159c-0.128-0.213-0.221-0.447-0.315-0.673-0.025-0.060-0.041-0.116-0.067-0.179-0.196-0.498-0.329-1.267-0.329-1.903 0-0.709 0.147-1.528 0.41-2.117 0.158-0.352 0.229-0.511 0.419-0.851 0.159-0.286 0.562-0.858 0.801-1.099l0.185-0.197c0.103-0.103 0.2-0.221 0.316-0.312l0.201-0.181c0.14-0.139 0.415-0.343 0.57-0.454 0.398-0.287 0.799-0.538 1.256-0.766 0.112-0.056 0.224-0.119 0.339-0.166 0.054-0.022 0.109-0.050 0.169-0.076l0.543-0.221c0.381-0.15 0.779-0.253 1.171-0.359 0.511-0.137 0.994-0.19 1.514-0.262 0.084-0.012 0.153-0.010 0.237-0.020 0.303-0.040 0.681-0.046 0.977-0.046 0.234 0 0.493 0.023 0.715 0.025l0.243 0.016c0.138 0.018 0.302 0.029 0.447 0.045 0.681 0.074 1.41 0.234 2.054 0.449 0.367 0.122 0.728 0.256 1.077 0.414 0.060 0.027 0.11 0.047 0.17 0.077 0.498 0.239 0.973 0.52 1.425 0.832 0.233 0.161 0.626 0.467 0.824 0.668 0.102 0.103 0.222 0.196 0.32 0.308 0.136 0.154 0.28 0.303 0.409 0.467l0.217 0.276c0.217 0.289 0.413 0.604 0.575 0.93 0.112 0.225 0.212 0.46 0.3 0.698 0.137 0.373 0.245 0.803 0.294 1.211 0.046 0.383 0.051 0.775 0.027 1.157-0.019 0.303-0.073 0.616-0.145 0.902-0.237 0.937-0.687 1.77-1.294 2.517-0.166 0.203-0.418 0.489-0.616 0.654-0.094 0.079-0.179 0.176-0.277 0.253-0.024 0.019-0.033 0.034-0.057 0.053-0.044 0.036-0.071 0.064-0.115 0.096-0.044 0.033-0.071 0.059-0.115 0.094l-0.484 0.354-0.662 0.412c-0.537 0.319-1.163 0.576-1.763 0.777-0.22 0.073-0.422 0.131-0.654 0.197-0.112 0.032-0.22 0.058-0.335 0.084-0.119 0.027-0.239 0.069-0.362 0.069v-0.838c0-0.050 0.216-0.081 0.263-0.095 0.051-0.014 0.087-0.020 0.137-0.037l0.937-0.32c0.563-0.213 1.154-0.54 1.634-0.88l0.606-0.468c0.070-0.056 0.126-0.114 0.192-0.178l0.606-0.639 0.385-0.516c0.097-0.145 0.192-0.297 0.27-0.457 0.264-0.532 0.461-1.004 0.559-1.6 0.187-1.142 0.022-2.117-0.459-3.161-0.134-0.292-0.301-0.562-0.487-0.82-0.032-0.044-0.055-0.078-0.088-0.122l-0.19-0.241c-0.144-0.185-0.405-0.464-0.576-0.608l-0.346-0.307c-0.248-0.222-0.544-0.415-0.826-0.591-0.245-0.154-0.502-0.297-0.765-0.418l-0.22-0.101c-0.155-0.075-0.307-0.124-0.463-0.191-0.212-0.089-0.434-0.149-0.655-0.22-0.348-0.114-1.249-0.305-1.61-0.325-0.126-0.008-0.267-0.038-0.394-0.038-0.091 0-0.124-0.013-0.21-0.012l-0.616-0.013c-0.347 0-0.677 0.033-1.022 0.063-0.712 0.060-1.642 0.307-2.301 0.56-0.112 0.043-0.211 0.085-0.315 0.128-0.249 0.102-0.495 0.224-0.729 0.356l-0.419 0.247c-0.273 0.162-0.518 0.36-0.766 0.553-0.029 0.024-0.033 0.029-0.060 0.052-0.233 0.195-0.47 0.407-0.665 0.641l-0.259 0.296c-0.232 0.284-0.45 0.599-0.613 0.928l-0.396 0.936c-0.163 0.485-0.233 1.006-0.233 1.531zM2.048 10.035c0 0.418 0.016 0.843 0.098 1.247 0.138 0.682 0.309 1.205 0.617 1.824 0.247 0.497 0.615 1.043 0.984 1.458 0.044 0.051 0.082 0.094 0.129 0.141l0.61 0.611c0.028 0.026 0.038 0.041 0.070 0.066l0.294 0.248c0.223 0.18 0.454 0.361 0.697 0.513l0.586 0.362c0.568 0.335 1.256 0.629 1.877 0.836 1.23 0.409 2.483 0.612 3.839 0.612 0.045 0 0.083-0.014 0.115-0.033 0.060-0.034 0.115-0.085 0.148-0.148 0.014-0.030 0.032-0.088 0.032-0.127v-7.769c0-0.028-0.009-0.037-0.037-0.037h-5.289c-0.028 0-0.037 0.009-0.037 0.037v2.109h2.811v3.551c-0.767-0.178-1.606-0.544-2.276-0.955-0.316-0.193-0.657-0.439-0.927-0.688l-0.487-0.487c-0.108-0.109-0.206-0.232-0.298-0.356-0.048-0.065-0.089-0.119-0.135-0.185l-0.369-0.606c-0.090-0.18-0.179-0.37-0.241-0.56l-0.117-0.375c-0.104-0.417-0.181-0.889-0.144-1.338 0.005-0.065-0.003-0.125 0.006-0.191 0.018-0.129 0.025-0.24 0.045-0.362 0.017-0.102 0.041-0.222 0.068-0.326 0.082-0.306 0.179-0.607 0.319-0.889 0.157-0.317 0.322-0.598 0.531-0.875l0.464-0.547 0.302-0.289c0.465-0.431 0.987-0.779 1.561-1.067 0.37-0.184 0.747-0.337 1.143-0.471 0.204-0.068 0.407-0.122 0.625-0.177 0.332-0.084 0.668-0.134 1.012-0.184 0.232-0.034 0.507-0.061 0.754-0.059 0.083 0 0.112-0.013 0.184-0.013 1.131-0.014 2.349 0.176 3.246 0.527 0.463 0.181 0.913 0.377 1.339 0.634 0.162 0.096 0.334 0.203 0.485 0.316 0.225 0.169 0.456 0.332 0.653 0.531 0.038 0.037 0.060 0.061 0.101 0.096 0.102 0.085 0.306 0.309 0.386 0.404 0.032 0.039 0.058 0.070 0.088 0.109 0.060 0.075 0.113 0.143 0.172 0.222 0.061 0.082 0.108 0.153 0.167 0.24 0.029 0.044 0.047 0.077 0.076 0.121 0.027 0.042 0.051 0.078 0.074 0.123 0.047 0.087 0.098 0.171 0.139 0.255 0.162 0.337 0.277 0.656 0.375 1.018 0.046 0.17 0.064 0.318 0.089 0.503 0.1 0.722-0.020 1.481-0.268 2.151l-0.189 0.428c-0.014 0.028-0.014 0.033-0.029 0.058-0.045 0.078-0.081 0.155-0.126 0.231-0.085 0.141-0.178 0.293-0.278 0.426-0.168 0.223-0.34 0.435-0.534 0.637l-0.777 0.678c-0.444 0.309-0.489 0.343-0.977 0.613-0.078 0.043-0.148 0.079-0.231 0.115-0.081 0.037-0.155 0.075-0.243 0.113-0.444 0.19-0.832 0.314-1.304 0.448-0.248 0.070-0.672 0.067-0.672 0.4v1.578c0 0.157 0.167 0.295 0.32 0.295 0.076 0 0.129-0.017 0.205-0.029 0.614-0.101 1.521-0.336 2.096-0.568 0.057-0.023 0.114-0.045 0.167-0.067 0.996-0.401 1.929-0.934 2.752-1.626l0.36-0.318c0.113-0.095 0.221-0.21 0.323-0.318 0.014-0.015 0.016-0.018 0.029-0.033 0.001-0.001 0.003-0.004 0.005-0.006l0.369-0.42c0.291-0.373 0.555-0.748 0.784-1.164 0.147-0.266 0.351-0.694 0.443-1 0.117-0.395 0.232-0.751 0.288-1.181 0.073-0.569 0.076-0.851 0.045-1.421-0.017-0.311-0.081-0.637-0.151-0.935-0.068-0.29-0.155-0.561-0.258-0.839-0.024-0.064-0.052-0.122-0.080-0.192l-0.262-0.552c-0.186-0.35-0.406-0.684-0.641-0.999-0.113-0.151-0.235-0.31-0.369-0.445-0.031-0.030-0.036-0.043-0.063-0.074l-0.203-0.215c-0.208-0.207-0.423-0.398-0.641-0.591-0.029-0.026-0.045-0.036-0.074-0.061-0.051-0.045-0.097-0.078-0.152-0.12-0.057-0.045-0.099-0.081-0.158-0.125-0.212-0.159-0.419-0.295-0.643-0.443-0.058-0.038-0.109-0.066-0.169-0.101l-0.892-0.477c-0.31-0.154-0.631-0.272-0.957-0.399l-0.414-0.141c-0.066-0.020-0.136-0.042-0.209-0.063-0.44-0.122-0.87-0.242-1.329-0.311-0.085-0.013-0.144-0.026-0.233-0.039-0.235-0.034-0.498-0.078-0.735-0.091-0.072-0.004-0.18-0.006-0.254-0.016-0.056-0.008-0.189-0.020-0.25-0.022-0.628-0.019-1.088-0.005-1.726 0.038l-0.486 0.056c-1.041 0.143-2.036 0.404-2.983 0.802-0.737 0.308-1.442 0.698-2.077 1.178-0.102 0.079-0.198 0.151-0.298 0.232l-0.437 0.377c-0.211 0.177-0.476 0.483-0.668 0.687l-0.242 0.301c-0.217 0.278-0.436 0.579-0.599 0.893-0.142 0.276-0.28 0.53-0.398 0.822-0.234 0.583-0.353 1.117-0.431 1.739-0.019 0.154-0.034 0.329-0.034 0.51z"></path>
<path fill="#fff" style="fill: var(--color1, #fff)" d="M16.115 7.26c0.009 0.013 0-0.004 0.013 0.025l0.27 0.901h-0.567l0.143-0.461c0.024-0.080 0.046-0.147 0.069-0.227 0.019-0.071 0.053-0.162 0.071-0.237zM15.524 9.221c0.017-0.074 0.042-0.142 0.064-0.219 0.016-0.057 0.047-0.175 0.071-0.225h0.926l0.066 0.229c0.027 0.079 0.044 0.214 0.094 0.214h0.802c0.060 0 0.025-0.054-0.009-0.139-0.024-0.059-0.044-0.115-0.064-0.17l-0.383-1.024c-0.040-0.111-0.082-0.223-0.125-0.332l-0.381-1.024h-0.913c-0.005 0.057-0.848 2.274-0.96 2.579-0.051 0.134-0.081 0.109 0.245 0.109 0.19 0 0.378 0 0.568 0z"></path>
<path fill="#fff" style="fill: var(--color1, #fff)" d="M8.52 6.57v2.614c0 0.028 0.009 0.037 0.038 0.037h2.083v-0.666h-1.281v-2.022h-0.802c-0.029 0-0.038 0.009-0.038 0.038z"></path>
<path fill="#fff" style="fill: var(--color1, #fff)" d="M11.011 9.221h2.083c0.029 0 0.038-0.009 0.038-0.037v-0.629h-1.295v-2.022h-0.825v2.688z"></path>
<path fill="#fff" style="fill: var(--color1, #fff)" d="M7.104 6.57v2.614c0 0.028 0.009 0.037 0.037 0.037h0.802v-2.688h-0.802c-0.028 0-0.037 0.009-0.037 0.038z"></path>
<path fill="#fff" style="fill: var(--color1, #fff)" d="M13.526 9.184c0 0.028 0.009 0.037 0.037 0.037h0.765c0.028 0 0.037-0.009 0.037-0.037v-2.614c0-0.029-0.009-0.038-0.037-0.038h-0.802v2.652z"></path>
</symbol>
</defs>
</svg>
